<?xml version="1.0" standalone="no"?>
<!DOCTYPE svg PUBLIC "-//W3C//DTD SVG 20010904//EN"
 "http://www.w3.org/TR/2001/REC-SVG-20010904/DTD/svg10.dtd">
<svg version="1.0" xmlns="http://www.w3.org/2000/svg"
 width="700.000000pt" height="700.000000pt" viewBox="0 0 700.000000 700.000000"
 preserveAspectRatio="xMidYMid meet">
<metadata>
Created by potrace 1.14, written by Peter Selinger 2001-2017
</metadata>
<g transform="translate(0.000000,700.000000) scale(0.100000,-0.100000)"
fill="#000000" stroke="none">
<path d="M3210 6989 c-651 -56 -1280 -294 -1793 -678 -375 -280 -693 -633
-928 -1027 -652 -1097 -652 -2472 1 -3568 243 -409 590 -785 990 -1073 334
-241 751 -433 1170 -538 260 -65 466 -93 755 -102 828 -25 1616 239 2275 761
148 118 424 391 536 531 435 545 684 1138 766 1830 17 145 17 607 0 745 -33
263 -85 507 -155 720 -276 839 -866 1550 -1642 1979 -87 48 -119 61 -154 61
-109 0 -177 -114 -118 -201 25 -38 37 -46 214 -147 353 -201 688 -498 944
-838 368 -489 582 -1042 640 -1658 17 -186 7 -574 -21 -751 -110 -720 -430
-1343 -946 -1845 -536 -520 -1210 -831 -1957 -901 -163 -15 -573 -6 -717 15
-590 89 -1090 300 -1552 656 -154 119 -435 398 -552 550 -342 442 -557 928
-645 1460 -31 191 -41 314 -41 530 0 216 10 339 41 530 89 539 318 1051 663
1485 105 132 374 400 506 504 310 246 633 421 1000 541 305 101 547 145 871
159 147 6 181 10 209 26 91 54 89 179 -3 235 -27 17 -49 20 -147 19 -63 -1
-158 -5 -210 -10z"/>
<path d="M4460 6802 c-108 -54 -104 -201 7 -248 42 -18 67 -18 109 2 67 32 96
129 57 195 -18 30 -85 69 -119 69 -10 0 -35 -8 -54 -18z"/>
<path d="M2786 5074 c-188 -46 -354 -208 -402 -394 -22 -87 -15 -243 14 -323
92 -253 365 -407 622 -353 208 44 374 203 426 409 22 82 14 229 -15 312 -92
259 -377 414 -645 349z m248 -289 c94 -45 150 -137 149 -245 0 -77 -17 -123
-69 -180 -59 -65 -105 -85 -199 -85 -95 0 -139 19 -202 88 -129 140 -71 367
112 435 45 17 163 10 209 -13z"/>
<path d="M5096 5074 c-171 -41 -327 -182 -388 -349 -30 -83 -36 -241 -13 -321
59 -204 220 -357 420 -399 39 -8 88 -15 110 -15 65 0 176 28 243 61 75 36 173
124 218 196 19 28 45 87 60 130 23 69 26 89 22 183 -5 126 -27 195 -94 292
-126 184 -361 275 -578 222z m224 -279 c92 -33 162 -122 176 -226 14 -101 -51
-220 -151 -272 -57 -31 -183 -31 -241 0 -48 25 -110 92 -129 137 -61 145 10
305 160 363 43 16 135 16 185 -2z"/>
<path d="M2631 2753 c-64 -33 -76 -61 -79 -184 l-4 -109 -59 0 c-92 0 -151
-41 -165 -116 -8 -45 25 -113 68 -139 29 -18 55 -20 221 -23 l187 -4 0 -101
c1 -135 11 -174 54 -214 29 -27 44 -33 81 -33 57 0 100 22 125 63 17 27 20 51
20 160 l0 127 130 0 130 0 0 -107 c0 -133 10 -173 56 -212 28 -25 43 -31 82
-31 59 0 108 29 128 75 9 23 14 73 14 155 l0 120 130 0 130 0 0 -121 c0 -137
13 -179 64 -210 39 -24 109 -25 147 -2 52 31 69 84 69 216 l0 117 120 0 120 0
0 -107 c0 -133 10 -173 56 -212 28 -25 43 -31 82 -31 59 0 108 29 128 75 9 23
14 73 14 155 l0 120 143 0 143 0 12 -60 c16 -85 53 -161 108 -220 28 -30 175
-138 363 -268 301 -207 318 -217 363 -217 32 0 56 7 75 21 29 22 363 495 388
551 20 44 19 92 -4 128 -29 48 -639 464 -721 492 -157 54 -343 9 -459 -111
-31 -31 -41 -36 -83 -36 l-48 0 0 110 c0 108 0 110 -31 145 -61 69 -148 69
-209 -1 -30 -34 -30 -36 -30 -144 l0 -110 -140 0 -140 0 0 103 c0 83 -4 108
-20 134 -54 89 -172 94 -233 9 -19 -26 -22 -47 -26 -138 l-3 -108 -114 0 -114
0 0 90 c0 59 -5 103 -16 130 -42 105 -177 117 -241 21 -20 -30 -23 -47 -23
-137 l0 -104 -135 0 -135 0 0 98 c0 147 -41 207 -140 207 -99 0 -140 -60 -140
-207 l0 -98 -120 0 -120 0 0 98 c0 107 -14 150 -61 185 -38 27 -97 32 -138 10z
m2829 -407 c25 -9 426 -276 498 -332 2 -1 -38 -63 -89 -137 l-92 -135 -111 76
c-415 286 -416 287 -416 374 0 78 34 128 107 154 47 16 59 16 103 0z"/>
</g>
</svg>
